{
    "asset" : {
        "generator" : "Khronos glTF Blender I/O v1.4.40",
        "version" : "2.0"
    },
    "scene" : 0,
    "scenes" : [
        {
            "name" : "Scene",
            "nodes" : [
                0
            ]
        }
    ],
    "nodes" : [
        {
            "mesh" : 0,
            "name" : "Asteroid Body"
        }
    ],
    "materials" : [
        {
            "doubleSided" : true,
            "name" : "Asteroid Body",
            "pbrMetallicRoughness" : {
                "baseColorFactor" : [
                    0.08449447154998779,
                    0.08449447154998779,
                    0.08449447154998779,
                    1
                ],
                "metallicFactor" : 0,
                "roughnessFactor" : 0.7264605760574341
            }
        }
    ],
    "meshes" : [
        {
            "name" : "Cube",
            "primitives" : [
                {
                    "attributes" : {
                        "POSITION" : 0,
                        "NORMAL" : 1,
                        "TEXCOORD_0" : 2
                    },
                    "indices" : 3,
                    "material" : 0
                }
            ]
        }
    ],
    "accessors" : [
        {
            "bufferView" : 0,
            "componentType" : 5126,
            "count" : 384,
            "max" : [
                2.2697784900665283,
                2.110506057739258,
                2.424119234085083
            ],
            "min" : [
                -1.8892102241516113,
                -2.0982728004455566,
                -2.3858587741851807
            ],
            "type" : "VEC3"
        },
        {
            "bufferView" : 1,
            "componentType" : 5126,
            "count" : 384,
            "type" : "VEC3"
        },
        {
            "bufferView" : 2,
            "componentType" : 5126,
            "count" : 384,
            "type" : "VEC2"
        },
        {
            "bufferView" : 3,
            "componentType" : 5123,
            "count" : 576,
            "type" : "SCALAR"
        }
    ],
    "bufferViews" : [
        {
            "buffer" : 0,
            "byteLength" : 4608,
            "byteOffset" : 0
        },
        {
            "buffer" : 0,
            "byteLength" : 4608,
            "byteOffset" : 4608
        },
        {
            "buffer" : 0,
            "byteLength" : 3072,
            "byteOffset" : 9216
        },
        {
            "buffer" : 0,
            "byteLength" : 1152,
            "byteOffset" : 12288
        }
    ],
    "buffers" : [
        {
            "byteLength" : 13440,
            "uri" : "asteroid.bin"
        }
    ]
}
